<?xml version="1.0" encoding="UTF-8" standalone="no"?>
<!DOCTYPE svg PUBLIC "-//W3C//DTD SVG 1.1//EN"
 "http://www.w3.org/Graphics/SVG/1.1/DTD/svg11.dtd">
<!-- Generated by graphviz version 12.2.0 (0)
 -->
<!-- Title: docker_compose_architecture Pages: 1 -->
<svg width="605pt" height="260pt"
 viewBox="0.00 0.00 604.59 260.00" xmlns="http://www.w3.org/2000/svg" xmlns:xlink="http://www.w3.org/1999/xlink">
<g id="graph0" class="graph" transform="scale(1 1) rotate(0) translate(4 256)">
<title>docker_compose_architecture</title>
<polygon fill="white" stroke="none" points="-4,4 -4,-256 600.59,-256 600.59,4 -4,4"/>
<!-- cardano -->
<g id="node1" class="node">
<title>cardano</title>
<ellipse fill="none" stroke="black" cx="66.47" cy="-159" rx="66.47" ry="30.05"/>
<text text-anchor="middle" x="66.47" y="-162.95" font-family="Times,serif" font-size="14.00">0. Cardano</text>
<text text-anchor="middle" x="66.47" y="-145.7" font-family="Times,serif" font-size="14.00">node</text>
</g>
<!-- egsync -->
<g id="node3" class="node">
<title>egsync</title>
<ellipse fill="none" stroke="black" cx="227.51" cy="-126" rx="58.57" ry="18"/>
<text text-anchor="middle" x="227.51" y="-121.33" font-family="Times,serif" font-size="14.00">2. egsync</text>
</g>
<!-- cardano&#45;&gt;egsync -->
<g id="edge1" class="edge">
<title>cardano&#45;&gt;egsync</title>
<path fill="none" stroke="black" d="M138.7,-144.22C148.2,-142.25 157.85,-140.25 167.11,-138.32"/>
<polygon fill="black" stroke="black" points="138.16,-140.76 129.08,-146.22 139.58,-147.61 138.16,-140.76"/>
<polygon fill="black" stroke="black" points="167.62,-141.79 176.7,-136.34 166.2,-134.94 167.62,-141.79"/>
</g>
<!-- ipfs -->
<g id="node2" class="node">
<title>ipfs</title>
<ellipse fill="none" stroke="black" cx="66.47" cy="-93" rx="48.05" ry="18"/>
<text text-anchor="middle" x="66.47" y="-88.33" font-family="Times,serif" font-size="14.00">1. IPFS</text>
</g>
<!-- ipfs&#45;&gt;egsync -->
<g id="edge2" class="edge">
<title>ipfs&#45;&gt;egsync</title>
<path fill="none" stroke="black" d="M120.27,-103.96C135.33,-107.08 151.83,-110.51 167.25,-113.7"/>
<polygon fill="black" stroke="black" points="121.24,-100.58 110.74,-101.98 119.82,-107.44 121.24,-100.58"/>
<polygon fill="black" stroke="black" points="166.26,-117.07 176.76,-115.68 167.68,-110.22 166.26,-117.07"/>
</g>
<!-- admin -->
<g id="node4" class="node">
<title>admin</title>
<ellipse fill="none" stroke="black" cx="391.18" cy="-234" rx="54.89" ry="18"/>
<text text-anchor="middle" x="391.18" y="-229.32" font-family="Times,serif" font-size="14.00">3. admin</text>
</g>
<!-- egsync&#45;&gt;admin -->
<g id="edge3" class="edge">
<title>egsync&#45;&gt;admin</title>
<path fill="none" stroke="black" d="M253.2,-151.5C271.08,-168.88 296.51,-191.48 322.08,-207 328.01,-210.59 334.49,-213.88 341.03,-216.83"/>
<polygon fill="black" stroke="black" points="255.7,-149.05 246.13,-144.5 250.77,-154.03 255.7,-149.05"/>
<polygon fill="black" stroke="black" points="339.31,-219.9 349.89,-220.59 342.05,-213.46 339.31,-219.9"/>
</g>
<!-- guardian -->
<g id="node5" class="node">
<title>guardian</title>
<ellipse fill="none" stroke="black" cx="391.18" cy="-180" rx="68.57" ry="18"/>
<text text-anchor="middle" x="391.18" y="-175.32" font-family="Times,serif" font-size="14.00">4. guardian</text>
</g>
<!-- egsync&#45;&gt;guardian -->
<g id="edge4" class="edge">
<title>egsync&#45;&gt;guardian</title>
<path fill="none" stroke="black" d="M278.9,-142.83C297.34,-148.99 318.25,-155.98 336.94,-162.22"/>
<polygon fill="black" stroke="black" points="280.09,-139.54 269.49,-139.69 277.87,-146.18 280.09,-139.54"/>
<polygon fill="black" stroke="black" points="335.61,-165.46 346.21,-165.31 337.83,-158.82 335.61,-165.46"/>
</g>
<!-- mediator -->
<g id="node6" class="node">
<title>mediator</title>
<ellipse fill="none" stroke="black" cx="391.18" cy="-126" rx="69.1" ry="18"/>
<text text-anchor="middle" x="391.18" y="-121.33" font-family="Times,serif" font-size="14.00">5. mediator</text>
</g>
<!-- egsync&#45;&gt;mediator -->
<g id="edge5" class="edge">
<title>egsync&#45;&gt;mediator</title>
<path fill="none" stroke="black" d="M297.84,-126C302.03,-126 306.26,-126 310.49,-126"/>
<polygon fill="black" stroke="black" points="297.93,-122.5 287.93,-126 297.93,-129.5 297.93,-122.5"/>
<polygon fill="black" stroke="black" points="310.13,-129.5 320.13,-126 310.13,-122.5 310.13,-129.5"/>
</g>
<!-- verifier -->
<g id="node8" class="node">
<title>verifier</title>
<ellipse fill="none" stroke="black" cx="391.18" cy="-72" rx="60.15" ry="18"/>
<text text-anchor="middle" x="391.18" y="-67.33" font-family="Times,serif" font-size="14.00">7. verifier</text>
</g>
<!-- egsync&#45;&gt;verifier -->
<g id="edge6" class="edge">
<title>egsync&#45;&gt;verifier</title>
<path fill="none" stroke="black" d="M278.93,-109.16C298.12,-102.75 319.99,-95.44 339.23,-89.02"/>
<polygon fill="black" stroke="black" points="277.87,-105.82 269.49,-112.31 280.09,-112.46 277.87,-105.82"/>
<polygon fill="black" stroke="black" points="340.1,-92.42 348.48,-85.93 337.89,-85.78 340.1,-92.42"/>
</g>
<!-- observer -->
<g id="node9" class="node">
<title>observer</title>
<ellipse fill="none" stroke="black" cx="391.18" cy="-18" rx="68.04" ry="18"/>
<text text-anchor="middle" x="391.18" y="-13.32" font-family="Times,serif" font-size="14.00">8. observer</text>
</g>
<!-- egsync&#45;&gt;observer -->
<g id="edge8" class="edge">
<title>egsync&#45;&gt;observer</title>
<path fill="none" stroke="black" d="M253.2,-100.5C271.08,-83.12 296.51,-60.52 322.08,-45 326.92,-42.06 332.13,-39.33 337.44,-36.83"/>
<polygon fill="black" stroke="black" points="250.77,-97.97 246.13,-107.5 255.7,-102.95 250.77,-97.97"/>
<polygon fill="black" stroke="black" points="338.59,-40.14 346.32,-32.89 335.76,-33.74 338.59,-40.14"/>
</g>
<!-- voter -->
<g id="node7" class="node">
<title>voter</title>
<ellipse fill="none" stroke="black" cx="546.43" cy="-126" rx="50.16" ry="18"/>
<text text-anchor="middle" x="546.43" y="-121.33" font-family="Times,serif" font-size="14.00">6. voter</text>
</g>
<!-- mediator&#45;&gt;voter -->
<g id="edge7" class="edge">
<title>mediator&#45;&gt;voter</title>
<path fill="none" stroke="black" d="M471.99,-126C476.37,-126 480.74,-126 485.04,-126"/>
<polygon fill="black" stroke="black" points="472.25,-122.5 462.25,-126 472.25,-129.5 472.25,-122.5"/>
<polygon fill="black" stroke="black" points="484.7,-129.5 494.7,-126 484.7,-122.5 484.7,-129.5"/>
</g>
</g>
</svg>
