<?xml version="1.0" encoding="UTF-8" standalone="no"?>
<!DOCTYPE svg PUBLIC "-//W3C//DTD SVG 1.1//EN"
 "http://www.w3.org/Graphics/SVG/1.1/DTD/svg11.dtd">
<!-- Generated by graphviz version 12.2.0 (0)
 -->
<!-- Title: verifier_deps Pages: 1 -->
<svg width="1288pt" height="764pt"
 viewBox="0.00 0.00 1288.33 764.00" xmlns="http://www.w3.org/2000/svg" xmlns:xlink="http://www.w3.org/1999/xlink">
<g id="graph0" class="graph" transform="scale(1 1) rotate(0) translate(4 760)">
<title>verifier_deps</title>
<polygon fill="white" stroke="none" points="-4,4 -4,-760 1284.33,-760 1284.33,4 -4,4"/>
<!-- manifest -->
<g id="node1" class="node">
<title>manifest</title>
<ellipse fill="none" stroke="black" cx="452" cy="-522" rx="54.89" ry="18"/>
<text text-anchor="middle" x="452" y="-517.33" font-family="Times,serif" font-size="14.00">manifest</text>
</g>
<!-- plaintext_tally -->
<g id="node16" class="node">
<title>plaintext_tally</title>
<ellipse fill="none" stroke="black" cx="339" cy="-90" rx="82.77" ry="18"/>
<text text-anchor="middle" x="339" y="-85.33" font-family="Times,serif" font-size="14.00">plaintext_tally</text>
</g>
<!-- manifest&#45;&gt;plaintext_tally -->
<g id="edge35" class="edge">
<title>manifest&#45;&gt;plaintext_tally</title>
<path fill="none" stroke="black" d="M410.77,-509.68C403.22,-507.71 395.39,-505.74 388,-504 211.65,-462.48 0,-560.17 0,-379 0,-379 0,-379 0,-233 0,-126.4 144.37,-98.46 244.68,-91.91"/>
<polygon fill="black" stroke="black" points="244.78,-95.41 254.56,-91.33 244.37,-88.42 244.78,-95.41"/>
</g>
<!-- spoiled_result -->
<g id="node17" class="node">
<title>spoiled_result</title>
<ellipse fill="none" stroke="black" cx="507" cy="-162" rx="81.2" ry="18"/>
<text text-anchor="middle" x="507" y="-157.32" font-family="Times,serif" font-size="14.00">spoiled_result</text>
</g>
<!-- manifest&#45;&gt;spoiled_result -->
<g id="edge39" class="edge">
<title>manifest&#45;&gt;spoiled_result</title>
<path fill="none" stroke="black" d="M463.4,-503.9C479.51,-478.02 507,-426.85 507,-379 507,-379 507,-379 507,-305 507,-265.74 507,-220.38 507,-191.69"/>
<polygon fill="black" stroke="black" points="510.5,-192 507,-182 503.5,-192 510.5,-192"/>
</g>
<!-- build_election -->
<g id="node27" class="node">
<title>build_election</title>
<ellipse fill="none" stroke="black" stroke-dasharray="1,5" cx="303" cy="-450" rx="80.67" ry="18"/>
<text text-anchor="middle" x="303" y="-445.32" font-family="Times,serif" font-size="14.00">build_election</text>
</g>
<!-- manifest&#45;&gt;build_election -->
<g id="edge26" class="edge">
<title>manifest&#45;&gt;build_election</title>
<path fill="none" stroke="black" d="M421.49,-506.67C399.98,-496.56 370.85,-482.88 346.86,-471.6"/>
<polygon fill="black" stroke="black" points="348.49,-468.51 337.95,-467.42 345.52,-474.84 348.49,-468.51"/>
</g>
<!-- ceremony_details -->
<g id="node2" class="node">
<title>ceremony_details</title>
<ellipse fill="none" stroke="black" cx="312" cy="-738" rx="98.56" ry="18"/>
<text text-anchor="middle" x="312" y="-733.33" font-family="Times,serif" font-size="14.00">ceremony_details</text>
</g>
<!-- guardian_pubkey -->
<g id="node3" class="node">
<title>guardian_pubkey</title>
<ellipse fill="none" stroke="black" cx="513" cy="-666" rx="96.98" ry="18"/>
<text text-anchor="middle" x="513" y="-661.33" font-family="Times,serif" font-size="14.00">guardian_pubkey</text>
</g>
<!-- ceremony_details&#45;&gt;guardian_pubkey -->
<g id="edge14" class="edge">
<title>ceremony_details&#45;&gt;guardian_pubkey</title>
<path fill="none" stroke="black" d="M356.11,-721.64C386.12,-711.19 426.04,-697.29 458.1,-686.12"/>
<polygon fill="black" stroke="black" points="458.92,-689.54 467.22,-682.94 456.62,-682.93 458.92,-689.54"/>
</g>
<!-- ceremony_details&#45;&gt;build_election -->
<g id="edge27" class="edge">
<title>ceremony_details&#45;&gt;build_election</title>
<path fill="none" stroke="black" d="M301.94,-719.95C288.79,-696.55 266.42,-652.74 258,-612 248.28,-564.99 241.45,-549.06 258,-504 261.79,-493.68 268.58,-484 275.75,-475.8"/>
<polygon fill="black" stroke="black" points="278.2,-478.31 282.52,-468.64 273.11,-473.5 278.2,-478.31"/>
</g>
<!-- guardian_backup -->
<g id="node4" class="node">
<title>guardian_backup</title>
<ellipse fill="none" stroke="black" cx="1058" cy="-594" rx="96.45" ry="18"/>
<text text-anchor="middle" x="1058" y="-589.33" font-family="Times,serif" font-size="14.00">guardian_backup</text>
</g>
<!-- guardian_pubkey&#45;&gt;guardian_backup -->
<g id="edge15" class="edge">
<title>guardian_pubkey&#45;&gt;guardian_backup</title>
<path fill="none" stroke="black" d="M594.84,-656.08C683.11,-646.24 827.7,-629.46 952,-612 959.93,-610.89 968.19,-609.67 976.43,-608.41"/>
<polygon fill="black" stroke="black" points="976.8,-611.89 986.14,-606.91 975.73,-604.98 976.8,-611.89"/>
</g>
<!-- guardian_verification -->
<g id="node5" class="node">
<title>guardian_verification</title>
<ellipse fill="none" stroke="black" cx="640" cy="-594" rx="116.97" ry="18"/>
<text text-anchor="middle" x="640" y="-589.33" font-family="Times,serif" font-size="14.00">guardian_verification</text>
</g>
<!-- guardian_pubkey&#45;&gt;guardian_verification -->
<g id="edge16" class="edge">
<title>guardian_pubkey&#45;&gt;guardian_verification</title>
<path fill="none" stroke="black" d="M543.1,-648.41C560.06,-639.06 581.46,-627.27 599.83,-617.14"/>
<polygon fill="black" stroke="black" points="601.28,-620.34 608.35,-612.44 597.91,-614.21 601.28,-620.34"/>
</g>
<!-- all_guardian_pubkeys -->
<g id="node19" class="node">
<title>all_guardian_pubkeys</title>
<ellipse fill="none" stroke="black" cx="386" cy="-594" rx="119.08" ry="18"/>
<text text-anchor="middle" x="386" y="-589.33" font-family="Times,serif" font-size="14.00">all_guardian_pubkeys</text>
</g>
<!-- guardian_pubkey&#45;&gt;all_guardian_pubkeys -->
<g id="edge1" class="edge">
<title>guardian_pubkey&#45;&gt;all_guardian_pubkeys</title>
<path fill="none" stroke="black" d="M482.9,-648.41C465.94,-639.06 444.54,-627.27 426.17,-617.14"/>
<polygon fill="black" stroke="black" points="428.09,-614.21 417.65,-612.44 424.72,-620.34 428.09,-614.21"/>
</g>
<!-- joint_key -->
<g id="node6" class="node">
<title>joint_key</title>
<ellipse fill="none" stroke="black" cx="323" cy="-522" rx="55.94" ry="18"/>
<text text-anchor="middle" x="323" y="-517.33" font-family="Times,serif" font-size="14.00">joint_key</text>
</g>
<!-- joint_key&#45;&gt;build_election -->
<g id="edge28" class="edge">
<title>joint_key&#45;&gt;build_election</title>
<path fill="none" stroke="black" d="M318.06,-503.7C315.92,-496.24 313.38,-487.32 310.99,-478.97"/>
<polygon fill="black" stroke="black" points="314.42,-478.21 308.3,-469.56 307.68,-480.14 314.42,-478.21"/>
</g>
<!-- constants -->
<g id="node7" class="node">
<title>constants</title>
<ellipse fill="none" stroke="black" cx="419" cy="-378" rx="59.63" ry="18"/>
<text text-anchor="middle" x="419" y="-373.32" font-family="Times,serif" font-size="14.00">constants</text>
</g>
<!-- context -->
<g id="node8" class="node">
<title>context</title>
<ellipse fill="none" stroke="black" cx="293" cy="-378" rx="48.58" ry="18"/>
<text text-anchor="middle" x="293" y="-373.32" font-family="Times,serif" font-size="14.00">context</text>
</g>
<!-- ciphertext_tally -->
<g id="node13" class="node">
<title>ciphertext_tally</title>
<ellipse fill="none" stroke="black" cx="351" cy="-306" rx="89.61" ry="18"/>
<text text-anchor="middle" x="351" y="-301.32" font-family="Times,serif" font-size="14.00">ciphertext_tally</text>
</g>
<!-- context&#45;&gt;ciphertext_tally -->
<g id="edge32" class="edge">
<title>context&#45;&gt;ciphertext_tally</title>
<path fill="none" stroke="black" d="M306.75,-360.41C313.58,-352.16 321.99,-342.01 329.64,-332.78"/>
<polygon fill="black" stroke="black" points="332.3,-335.05 335.98,-325.12 326.91,-330.59 332.3,-335.05"/>
</g>
<!-- tally_share -->
<g id="node14" class="node">
<title>tally_share</title>
<ellipse fill="none" stroke="black" cx="258" cy="-234" rx="65.94" ry="18"/>
<text text-anchor="middle" x="258" y="-229.32" font-family="Times,serif" font-size="14.00">tally_share</text>
</g>
<!-- context&#45;&gt;tally_share -->
<g id="edge18" class="edge">
<title>context&#45;&gt;tally_share</title>
<path fill="none" stroke="black" d="M276.11,-361.07C267.06,-351.34 256.81,-338.09 252,-324 245.34,-304.5 247.22,-281.22 250.57,-263.37"/>
<polygon fill="black" stroke="black" points="253.96,-264.24 252.65,-253.72 247.12,-262.76 253.96,-264.24"/>
</g>
<!-- spoiled_share -->
<g id="node15" class="node">
<title>spoiled_share</title>
<ellipse fill="none" stroke="black" cx="653" cy="-306" rx="79.62" ry="18"/>
<text text-anchor="middle" x="653" y="-301.32" font-family="Times,serif" font-size="14.00">spoiled_share</text>
</g>
<!-- context&#45;&gt;spoiled_share -->
<g id="edge20" class="edge">
<title>context&#45;&gt;spoiled_share</title>
<path fill="none" stroke="black" d="M329.01,-365.57C335.94,-363.57 343.17,-361.61 350,-360 425.97,-342.09 513.95,-327.36 575.47,-318.01"/>
<polygon fill="black" stroke="black" points="575.78,-321.5 585.15,-316.55 574.74,-314.58 575.78,-321.5"/>
</g>
<!-- context&#45;&gt;plaintext_tally -->
<g id="edge36" class="edge">
<title>context&#45;&gt;plaintext_tally</title>
<path fill="none" stroke="black" d="M329.34,-365.73C374.39,-351.61 445.83,-328.69 450,-324 476.91,-293.8 473.55,-275.19 469,-235"/>
<path fill="none" stroke="black" d="M469,-233C466.7,-188.75 421.88,-200.33 398,-163"/>
</g>
<!-- context&#45;&gt;spoiled_result -->
<g id="edge40" class="edge">
<title>context&#45;&gt;spoiled_result</title>
<path fill="none" stroke="black" d="M469,-233C467.2,-217.12 474.77,-201.32 483.61,-188.75"/>
<polygon fill="black" stroke="black" points="486.24,-191.09 489.57,-181.03 480.69,-186.81 486.24,-191.09"/>
</g>
<!-- device -->
<g id="node9" class="node">
<title>device</title>
<ellipse fill="none" stroke="black" cx="900" cy="-594" rx="43.32" ry="18"/>
<text text-anchor="middle" x="900" y="-589.33" font-family="Times,serif" font-size="14.00">device</text>
</g>
<!-- ballot_submitted -->
<g id="node10" class="node">
<title>ballot_submitted</title>
<ellipse fill="none" stroke="black" cx="728" cy="-522" rx="95.4" ry="18"/>
<text text-anchor="middle" x="728" y="-517.33" font-family="Times,serif" font-size="14.00">ballot_submitted</text>
</g>
<!-- device&#45;&gt;ballot_submitted -->
<g id="edge23" class="edge">
<title>device&#45;&gt;ballot_submitted</title>
<path fill="none" stroke="black" d="M870.04,-580.81C844.58,-570.45 807.52,-555.36 777.63,-543.2"/>
<polygon fill="black" stroke="black" points="778.97,-539.96 768.38,-539.44 776.33,-546.45 778.97,-539.96"/>
</g>
<!-- cast_notice -->
<g id="node11" class="node">
<title>cast_notice</title>
<ellipse fill="none" stroke="black" cx="931" cy="-522" rx="66.99" ry="18"/>
<text text-anchor="middle" x="931" y="-517.33" font-family="Times,serif" font-size="14.00">cast_notice</text>
</g>
<!-- device&#45;&gt;cast_notice -->
<g id="edge24" class="edge">
<title>device&#45;&gt;cast_notice</title>
<path fill="none" stroke="black" d="M907.5,-576.05C910.88,-568.43 914.95,-559.23 918.75,-550.65"/>
<polygon fill="black" stroke="black" points="921.89,-552.22 922.74,-541.66 915.49,-549.39 921.89,-552.22"/>
</g>
<!-- ballot_spoiled -->
<g id="node12" class="node">
<title>ballot_spoiled</title>
<ellipse fill="none" stroke="black" cx="1162" cy="-522" rx="80.14" ry="18"/>
<text text-anchor="middle" x="1162" y="-517.33" font-family="Times,serif" font-size="14.00">ballot_spoiled</text>
</g>
<!-- device&#45;&gt;ballot_spoiled -->
<g id="edge25" class="edge">
<title>device&#45;&gt;ballot_spoiled</title>
<path fill="none" stroke="black" d="M933.27,-581.98C939.79,-579.92 946.59,-577.84 953,-576 1000.96,-562.24 1055.63,-548.44 1097.02,-538.38"/>
<polygon fill="black" stroke="black" points="1097.69,-541.82 1106.59,-536.06 1096.05,-535.01 1097.69,-541.82"/>
</g>
<!-- ballot_submitted&#45;&gt;spoiled_share -->
<g id="edge21" class="edge">
<title>ballot_submitted&#45;&gt;spoiled_share</title>
<path fill="none" stroke="black" d="M661.6,-508.77C638.79,-501.04 615.59,-488.46 602,-468 573.8,-425.54 607.42,-366.51 631.9,-332.99"/>
<polygon fill="black" stroke="black" points="634.66,-335.14 637.9,-325.05 629.08,-330.92 634.66,-335.14"/>
</g>
<!-- all_ballots_submitted -->
<g id="node20" class="node">
<title>all_ballots_submitted</title>
<ellipse fill="none" stroke="black" cx="728" cy="-450" rx="117.5" ry="18"/>
<text text-anchor="middle" x="728" y="-445.32" font-family="Times,serif" font-size="14.00">all_ballots_submitted</text>
</g>
<!-- ballot_submitted&#45;&gt;all_ballots_submitted -->
<g id="edge2" class="edge">
<title>ballot_submitted&#45;&gt;all_ballots_submitted</title>
<path fill="none" stroke="black" d="M728,-503.7C728,-496.41 728,-487.73 728,-479.54"/>
<polygon fill="black" stroke="black" points="731.5,-479.62 728,-469.62 724.5,-479.62 731.5,-479.62"/>
</g>
<!-- all_cast_notices -->
<g id="node22" class="node">
<title>all_cast_notices</title>
<ellipse fill="none" stroke="black" cx="953" cy="-450" rx="89.09" ry="18"/>
<text text-anchor="middle" x="953" y="-445.32" font-family="Times,serif" font-size="14.00">all_cast_notices</text>
</g>
<!-- cast_notice&#45;&gt;all_cast_notices -->
<g id="edge4" class="edge">
<title>cast_notice&#45;&gt;all_cast_notices</title>
<path fill="none" stroke="black" d="M936.44,-503.7C938.78,-496.24 941.58,-487.32 944.21,-478.97"/>
<polygon fill="black" stroke="black" points="947.51,-480.14 947.17,-469.55 940.83,-478.04 947.51,-480.14"/>
</g>
<!-- ballot_spoiled&#45;&gt;spoiled_share -->
<g id="edge22" class="edge">
<title>ballot_spoiled&#45;&gt;spoiled_share</title>
<path fill="none" stroke="black" d="M1216.61,-508.44C1238.01,-500.56 1260.41,-487.96 1273,-468 1281.54,-454.47 1283.65,-443.94 1273,-432 1204.22,-354.88 904.33,-423.37 811,-379"/>
<path fill="none" stroke="black" d="M811,-377C800.78,-372.11 801.68,-365.89 792,-360 767.3,-344.95 737.6,-332.93 712.01,-324.16"/>
<polygon fill="black" stroke="black" points="713.35,-320.92 702.76,-321.08 711.14,-327.56 713.35,-320.92"/>
</g>
<!-- ballot_spoiled&#45;&gt;spoiled_result -->
<g id="edge41" class="edge">
<title>ballot_spoiled&#45;&gt;spoiled_result</title>
<path fill="none" stroke="black" d="M811,-377C776.34,-360.42 777.21,-240.96 748,-216 724.2,-195.66 649.02,-181.27 588.89,-172.67"/>
<polygon fill="black" stroke="black" points="589.74,-169.25 579.35,-171.34 588.77,-176.18 589.74,-169.25"/>
</g>
<!-- all_ballots_spoiled -->
<g id="node21" class="node">
<title>all_ballots_spoiled</title>
<ellipse fill="none" stroke="black" cx="1162" cy="-450" rx="102.24" ry="18"/>
<text text-anchor="middle" x="1162" y="-445.32" font-family="Times,serif" font-size="14.00">all_ballots_spoiled</text>
</g>
<!-- ballot_spoiled&#45;&gt;all_ballots_spoiled -->
<g id="edge3" class="edge">
<title>ballot_spoiled&#45;&gt;all_ballots_spoiled</title>
<path fill="none" stroke="black" d="M1162,-503.7C1162,-496.41 1162,-487.73 1162,-479.54"/>
<polygon fill="black" stroke="black" points="1165.5,-479.62 1162,-469.62 1158.5,-479.62 1165.5,-479.62"/>
</g>
<!-- ciphertext_tally&#45;&gt;tally_share -->
<g id="edge19" class="edge">
<title>ciphertext_tally&#45;&gt;tally_share</title>
<path fill="none" stroke="black" d="M328.96,-288.41C316.94,-279.37 301.88,-268.03 288.73,-258.13"/>
<polygon fill="black" stroke="black" points="290.86,-255.36 280.77,-252.14 286.65,-260.95 290.86,-255.36"/>
</g>
<!-- ciphertext_tally&#45;&gt;plaintext_tally -->
<g id="edge37" class="edge">
<title>ciphertext_tally&#45;&gt;plaintext_tally</title>
<path fill="none" stroke="black" d="M365.49,-288.06C387.49,-260.17 424.16,-203.6 398,-163"/>
<path fill="none" stroke="black" d="M398,-161C387.91,-145.23 374.61,-129.14 363.2,-116.38"/>
<polygon fill="black" stroke="black" points="366,-114.26 356.67,-109.24 360.83,-118.98 366,-114.26"/>
</g>
<!-- all_tally_shares -->
<g id="node26" class="node">
<title>all_tally_shares</title>
<ellipse fill="none" stroke="black" cx="258" cy="-162" rx="88.04" ry="18"/>
<text text-anchor="middle" x="258" y="-157.32" font-family="Times,serif" font-size="14.00">all_tally_shares</text>
</g>
<!-- tally_share&#45;&gt;all_tally_shares -->
<g id="edge12" class="edge">
<title>tally_share&#45;&gt;all_tally_shares</title>
<path fill="none" stroke="black" d="M258,-215.7C258,-208.41 258,-199.73 258,-191.54"/>
<polygon fill="black" stroke="black" points="261.5,-191.62 258,-181.62 254.5,-191.62 261.5,-191.62"/>
</g>
<!-- all_spoiled_shares -->
<g id="node24" class="node">
<title>all_spoiled_shares</title>
<ellipse fill="none" stroke="black" cx="637" cy="-234" rx="101.71" ry="18"/>
<text text-anchor="middle" x="637" y="-229.32" font-family="Times,serif" font-size="14.00">all_spoiled_shares</text>
</g>
<!-- spoiled_share&#45;&gt;all_spoiled_shares -->
<g id="edge8" class="edge">
<title>spoiled_share&#45;&gt;all_spoiled_shares</title>
<path fill="none" stroke="black" d="M649.04,-287.7C647.36,-280.32 645.35,-271.52 643.46,-263.25"/>
<polygon fill="black" stroke="black" points="646.89,-262.55 641.25,-253.58 640.06,-264.11 646.89,-262.55"/>
</g>
<!-- election -->
<g id="node18" class="node">
<title>election</title>
<ellipse fill="none" stroke="black" cx="565" cy="-18" rx="50.68" ry="18"/>
<text text-anchor="middle" x="565" y="-13.32" font-family="Times,serif" font-size="14.00">election</text>
</g>
<!-- plaintext_tally&#45;&gt;election -->
<g id="edge43" class="edge">
<title>plaintext_tally&#45;&gt;election</title>
<path fill="none" stroke="black" d="M385.28,-74.67C423.76,-62.75 478.33,-45.85 517.22,-33.8"/>
<polygon fill="black" stroke="black" points="517.78,-37.29 526.3,-30.99 515.71,-30.6 517.78,-37.29"/>
</g>
<!-- all_spoiled_results -->
<g id="node25" class="node">
<title>all_spoiled_results</title>
<ellipse fill="none" stroke="black" cx="565" cy="-90" rx="103.29" ry="18"/>
<text text-anchor="middle" x="565" y="-85.33" font-family="Times,serif" font-size="14.00">all_spoiled_results</text>
</g>
<!-- spoiled_result&#45;&gt;all_spoiled_results -->
<g id="edge10" class="edge">
<title>spoiled_result&#45;&gt;all_spoiled_results</title>
<path fill="none" stroke="black" d="M521.04,-144.05C527.78,-135.92 536,-126 543.5,-116.94"/>
<polygon fill="black" stroke="black" points="546.04,-119.37 549.72,-109.44 540.65,-114.91 546.04,-119.37"/>
</g>
<!-- all_guardian_pubkeys&#45;&gt;joint_key -->
<g id="edge17" class="edge">
<title>all_guardian_pubkeys&#45;&gt;joint_key</title>
<path fill="none" stroke="black" d="M370.43,-575.7C362.92,-567.35 353.77,-557.18 345.51,-548.02"/>
<polygon fill="black" stroke="black" points="348.26,-545.84 338.97,-540.75 343.06,-550.52 348.26,-545.84"/>
</g>
<!-- all_guardian_pubkeys&#45;&gt;all_spoiled_shares -->
<g id="edge9" class="edge">
<title>all_guardian_pubkeys&#45;&gt;all_spoiled_shares</title>
<path fill="none" stroke="black" d="M451.48,-578.53C474.52,-570.55 498.9,-558.38 516,-540 544.34,-509.54 535,-491.38 545,-451"/>
<path fill="none" stroke="black" d="M545,-449C571.18,-381.87 527.57,-350.16 564,-288 571.12,-275.86 582.23,-265.71 593.65,-257.66"/>
<polygon fill="black" stroke="black" points="595.53,-260.61 601.98,-252.21 591.7,-254.76 595.53,-260.61"/>
</g>
<!-- all_guardian_pubkeys&#45;&gt;all_spoiled_results -->
<g id="edge11" class="edge">
<title>all_guardian_pubkeys&#45;&gt;all_spoiled_results</title>
<path fill="none" stroke="black" d="M545,-449C568.25,-392.42 597.47,-391.35 650,-360 687.7,-337.5 715.76,-359.21 742,-324 761.19,-298.25 746.67,-284.08 748,-252 748.66,-236.01 755.47,-230.15 748,-216 721.03,-164.92 662.76,-130.76 619.18,-111.25"/>
<polygon fill="black" stroke="black" points="620.68,-108.08 610.11,-107.32 617.89,-114.51 620.68,-108.08"/>
</g>
<!-- all_guardian_pubkeys&#45;&gt;all_tally_shares -->
<g id="edge13" class="edge">
<title>all_guardian_pubkeys&#45;&gt;all_tally_shares</title>
<path fill="none" stroke="black" d="M316.21,-579.03C228.2,-557.19 80.89,-505.55 19,-396 -34.99,-300.44 121.73,-218.74 206.93,-182.7"/>
<polygon fill="black" stroke="black" points="208.16,-185.98 216.05,-178.91 205.47,-179.52 208.16,-185.98"/>
</g>
<!-- all_ballots -->
<g id="node23" class="node">
<title>all_ballots</title>
<ellipse fill="none" stroke="black" cx="721" cy="-378" rx="61.73" ry="18"/>
<text text-anchor="middle" x="721" y="-373.32" font-family="Times,serif" font-size="14.00">all_ballots</text>
</g>
<!-- all_ballots_submitted&#45;&gt;all_ballots -->
<g id="edge5" class="edge">
<title>all_ballots_submitted&#45;&gt;all_ballots</title>
<path fill="none" stroke="black" d="M726.27,-431.7C725.54,-424.41 724.67,-415.73 723.85,-407.54"/>
<polygon fill="black" stroke="black" points="727.34,-407.21 722.86,-397.61 720.37,-407.91 727.34,-407.21"/>
</g>
<!-- all_ballots_spoiled&#45;&gt;all_ballots -->
<g id="edge6" class="edge">
<title>all_ballots_spoiled&#45;&gt;all_ballots</title>
<path fill="none" stroke="black" d="M1087.08,-437.41C1075.02,-435.58 1062.67,-433.72 1051,-432 938.2,-415.37 909.17,-416.46 797,-396 791.1,-394.92 784.96,-393.71 778.84,-392.44"/>
<polygon fill="black" stroke="black" points="779.9,-389.08 769.39,-390.42 778.44,-395.93 779.9,-389.08"/>
</g>
<!-- all_cast_notices&#45;&gt;all_ballots -->
<g id="edge7" class="edge">
<title>all_cast_notices&#45;&gt;all_ballots</title>
<path fill="none" stroke="black" d="M904.93,-434.5C866.68,-422.95 813.2,-406.82 773.77,-394.92"/>
<polygon fill="black" stroke="black" points="774.82,-391.58 764.24,-392.05 772.8,-398.28 774.82,-391.58"/>
</g>
<!-- all_ballots&#45;&gt;ciphertext_tally -->
<g id="edge33" class="edge">
<title>all_ballots&#45;&gt;ciphertext_tally</title>
<path fill="none" stroke="black" d="M670.33,-367.41C607.08,-355.45 498.37,-334.88 425.6,-321.11"/>
<polygon fill="black" stroke="black" points="426.65,-317.75 416.17,-319.33 425.35,-324.63 426.65,-317.75"/>
</g>
<!-- all_ballots&#45;&gt;election -->
<g id="edge44" class="edge">
<title>all_ballots&#45;&gt;election</title>
<path fill="none" stroke="black" d="M749.73,-361.75C787.46,-339.4 849,-293.91 849,-235 849,-235 849,-235 849,-161 849,-62.15 709.66,-32.11 626.18,-22.98"/>
<polygon fill="black" stroke="black" points="626.6,-19.51 616.3,-21.98 625.9,-26.47 626.6,-19.51"/>
</g>
<!-- all_spoiled_shares&#45;&gt;spoiled_result -->
<g id="edge42" class="edge">
<title>all_spoiled_shares&#45;&gt;spoiled_result</title>
<path fill="none" stroke="black" d="M606.19,-216.41C588.37,-206.82 565.76,-194.64 546.62,-184.34"/>
<polygon fill="black" stroke="black" points="548.49,-181.37 538.02,-179.71 545.17,-187.53 548.49,-181.37"/>
</g>
<!-- all_spoiled_results&#45;&gt;election -->
<g id="edge45" class="edge">
<title>all_spoiled_results&#45;&gt;election</title>
<path fill="none" stroke="black" d="M565,-71.7C565,-64.41 565,-55.73 565,-47.54"/>
<polygon fill="black" stroke="black" points="568.5,-47.62 565,-37.62 561.5,-47.62 568.5,-47.62"/>
</g>
<!-- all_tally_shares&#45;&gt;plaintext_tally -->
<g id="edge38" class="edge">
<title>all_tally_shares&#45;&gt;plaintext_tally</title>
<path fill="none" stroke="black" d="M277.61,-144.05C287.66,-135.37 300.07,-124.64 311.1,-115.11"/>
<polygon fill="black" stroke="black" points="313.15,-117.97 318.43,-108.78 308.57,-112.67 313.15,-117.97"/>
</g>
<!-- build_election&#45;&gt;constants -->
<g id="edge29" class="edge">
<title>build_election&#45;&gt;constants</title>
<path fill="none" stroke="black" d="M330.2,-432.59C346.09,-422.99 366.34,-410.78 383.49,-400.43"/>
<polygon fill="black" stroke="black" points="385.12,-403.53 391.87,-395.37 381.5,-397.54 385.12,-403.53"/>
</g>
<!-- build_election&#45;&gt;context -->
<g id="edge30" class="edge">
<title>build_election&#45;&gt;context</title>
<path fill="none" stroke="black" d="M300.53,-431.7C299.47,-424.32 298.22,-415.52 297.04,-407.25"/>
<polygon fill="black" stroke="black" points="300.54,-407.01 295.66,-397.6 293.61,-408 300.54,-407.01"/>
</g>
<!-- internal_manifest -->
<g id="node28" class="node">
<title>internal_manifest</title>
<ellipse fill="none" stroke="black" stroke-dasharray="1,5" cx="127" cy="-378" rx="99.08" ry="18"/>
<text text-anchor="middle" x="127" y="-373.32" font-family="Times,serif" font-size="14.00">internal_manifest</text>
</g>
<!-- build_election&#45;&gt;internal_manifest -->
<g id="edge31" class="edge">
<title>build_election&#45;&gt;internal_manifest</title>
<path fill="none" stroke="black" d="M264.81,-433.81C239.17,-423.61 205.12,-410.07 177.28,-399"/>
<polygon fill="black" stroke="black" points="178.94,-395.89 168.35,-395.45 176.35,-402.4 178.94,-395.89"/>
</g>
<!-- internal_manifest&#45;&gt;ciphertext_tally -->
<g id="edge34" class="edge">
<title>internal_manifest&#45;&gt;ciphertext_tally</title>
<path fill="none" stroke="black" d="M175.33,-361.9C209.83,-351.12 256.4,-336.56 292.92,-325.15"/>
<polygon fill="black" stroke="black" points="293.96,-328.49 302.47,-322.17 291.88,-321.81 293.96,-328.49"/>
</g>
</g>
</svg>
